<svg width="5853" height="383" viewBox="0 0 5853 383" fill="none" xmlns="http://www.w3.org/2000/svg">
<path d="M5305.64 319.288V180.323H5264.57V166.339H5362.02V180.323H5320.94V319.288H5305.64Z" fill="white"/>
<path d="M5138.58 319.288V166.339H5155.18L5228.16 292.631V166.339H5243.46V319.288H5226.85L5153.87 192.777V319.288H5138.58Z" fill="white"/>
<path d="M5022.64 319.288V166.339H5116.82V180.323H5037.94V235.384H5110.26V249.368H5037.94V305.304H5116.82V319.288H5022.64Z" fill="white"/>
<path d="M4892.72 319.288V166.339H4909.33L4946.47 241.502L4983.4 166.339H5000.22V319.288H4984.93V196.273L4952.15 262.478H4940.79L4908.02 196.492V319.288H4892.72Z" fill="white"/>
<path d="M4775.25 319.288V166.339H4825.51C4837.31 166.339 4846.85 168.524 4854.13 172.894C4861.42 177.118 4866.73 182.726 4870.08 189.718C4873.43 196.71 4875.11 204.285 4875.11 212.442C4875.11 220.454 4873.43 228.028 4870.08 235.166C4866.73 242.158 4861.42 247.839 4854.13 252.209C4846.85 256.433 4837.31 258.545 4825.51 258.545H4790.55V319.288H4775.25ZM4790.55 244.561H4825.51C4836.73 244.561 4845.17 241.575 4850.85 235.603C4856.54 229.485 4859.38 221.765 4859.38 212.442C4859.38 202.974 4856.54 195.254 4850.85 189.281C4845.17 183.309 4836.73 180.323 4825.51 180.323H4790.55V244.561Z" fill="white"/>
<path d="M4701.92 321.909C4689.69 321.909 4679.13 318.632 4670.24 312.077C4661.5 305.376 4654.73 296.127 4649.92 284.328C4645.26 272.383 4642.93 258.545 4642.93 242.813C4642.93 227.227 4645.26 213.535 4649.92 201.736C4654.73 189.791 4661.5 180.469 4670.24 173.768C4679.13 167.067 4689.69 163.717 4701.92 163.717C4714.31 163.717 4724.87 167.067 4733.61 173.768C4742.35 180.469 4749.05 189.791 4753.71 201.736C4758.52 213.535 4760.92 227.227 4760.92 242.813C4760.92 258.545 4758.52 272.383 4753.71 284.328C4749.05 296.127 4742.35 305.376 4733.61 312.077C4724.87 318.632 4714.31 321.909 4701.92 321.909ZM4701.92 307.489C4714.89 307.489 4725.3 301.88 4733.17 290.664C4741.18 279.302 4745.19 263.352 4745.19 242.813C4745.19 222.274 4741.18 206.397 4733.17 195.181C4725.3 183.819 4714.89 178.138 4701.92 178.138C4689.11 178.138 4678.69 183.819 4670.68 195.181C4662.67 206.397 4658.66 222.274 4658.66 242.813C4658.66 263.352 4662.67 279.302 4670.68 290.664C4678.69 301.88 4689.11 307.489 4701.92 307.489Z" fill="white"/>
<path d="M4533.99 319.288V166.339H4549.28V305.304H4628.16V319.288H4533.99Z" fill="white"/>
<path d="M4411.28 319.288V166.339H4505.45V180.323H4426.57V235.384H4498.89V249.368H4426.57V305.304H4505.45V319.288H4411.28Z" fill="white"/>
<path d="M4325.93 319.288L4276.11 166.339H4292.72L4335.11 299.623L4377.49 166.339H4394.1L4344.28 319.288H4325.93Z" fill="white"/>
<path d="M4166.73 319.288V166.339H4260.9V180.323H4182.02V235.384H4254.35V249.368H4182.02V305.304H4260.9V319.288H4166.73Z" fill="white"/>
<path d="M4040.74 319.288V166.339H4069.8C4086.84 166.339 4100.83 169.471 4111.75 175.735C4122.68 181.852 4130.76 190.665 4136.01 202.173C4141.4 213.535 4144.09 227.081 4144.09 242.813C4144.09 258.545 4141.4 272.165 4136.01 283.672C4130.76 295.034 4122.68 303.847 4111.75 310.111C4100.83 316.229 4086.84 319.288 4069.8 319.288H4040.74ZM4056.04 305.304H4069.8C4084.22 305.304 4095.66 302.755 4104.11 297.656C4112.7 292.412 4118.89 285.129 4122.68 275.806C4126.47 266.484 4128.36 255.486 4128.36 242.813C4128.36 230.14 4126.47 219.143 4122.68 209.82C4118.89 200.352 4112.7 193.069 4104.11 187.97C4095.66 182.872 4084.22 180.323 4069.8 180.323H4056.04V305.304Z" fill="white"/>
<path d="M3835.52 321.909C3826.35 321.909 3818.26 320.016 3811.27 316.228C3804.42 312.295 3799.03 306.906 3795.1 300.06C3791.17 293.068 3789.2 284.91 3789.2 275.588C3789.2 266.12 3791.61 257.671 3796.41 250.242C3801.22 242.813 3808.14 236.55 3817.17 231.451C3812.95 225.479 3809.89 219.871 3807.99 214.627C3806.25 209.383 3805.37 204.066 3805.37 198.677C3805.37 188.334 3808.87 179.959 3815.86 173.549C3823 166.995 3832.32 163.717 3843.83 163.717C3854.9 163.717 3863.86 166.849 3870.7 173.112C3877.55 179.376 3880.97 187.533 3880.97 197.584H3865.68C3865.68 191.175 3863.42 186.295 3858.9 182.945C3854.53 179.449 3849.51 177.701 3843.83 177.701C3836.54 177.701 3830.86 179.667 3826.78 183.6C3822.71 187.388 3820.67 192.34 3820.67 198.458C3820.67 202.974 3821.83 207.708 3824.16 212.661C3826.64 217.467 3830.35 222.93 3835.31 229.048L3872.67 274.932L3888.18 240.191H3904.57L3882.5 287.168L3908.72 319.287H3890.37L3875.07 300.934C3870.85 307.197 3865.46 312.295 3858.9 316.228C3852.49 320.016 3844.7 321.909 3835.52 321.909ZM3804.5 275.151C3804.5 284.473 3807.34 292.267 3813.02 298.53C3818.85 304.794 3826.35 307.926 3835.52 307.926C3842.22 307.926 3847.91 306.396 3852.57 303.337C3857.23 300.132 3861.45 295.471 3865.24 289.353L3825.91 242.376C3811.63 249.805 3804.5 260.73 3804.5 275.151Z" fill="white"/>
<path d="M3549.03 319.288V166.339H3565.63L3638.61 292.631V166.339H3653.9V319.288H3637.3L3564.32 192.777V319.288H3549.03Z" fill="white"/>
<path d="M3478.1 321.909C3467.47 321.909 3458 318.778 3449.69 312.514C3441.39 306.25 3434.84 297.219 3430.03 285.42C3425.37 273.621 3423.04 259.419 3423.04 242.813C3423.04 226.207 3425.44 212.005 3430.25 200.206C3435.2 188.407 3442.05 179.376 3450.79 173.112C3459.53 166.849 3469.72 163.717 3481.38 163.717C3490.7 163.717 3498.93 165.684 3506.07 169.616C3513.35 173.404 3519.18 178.793 3523.55 185.785C3528.06 192.632 3530.76 200.716 3531.63 210.039H3514.59C3513.13 200.716 3509.56 193.069 3503.88 187.096C3498.35 181.124 3490.85 178.138 3481.38 178.138C3468.41 178.138 3458.07 183.819 3450.35 195.181C3442.63 206.543 3438.77 222.42 3438.77 242.813C3438.77 256.36 3440.44 268.013 3443.8 277.773C3447.29 287.387 3452.1 294.743 3458.22 299.841C3464.33 304.939 3471.33 307.489 3479.19 307.489C3485.75 307.489 3491.35 305.959 3496.02 302.9C3500.82 299.841 3504.76 295.762 3507.82 290.664C3511.02 285.42 3513.42 279.666 3515.03 273.403C3516.77 266.994 3517.72 260.512 3517.87 253.957H3482.25V240.41H3533.6V319.287H3519.61L3518.3 294.379H3517.43C3514.37 302.827 3509.64 309.528 3503.23 314.48C3496.96 319.433 3488.59 321.909 3478.1 321.909Z" fill="white"/>
<path d="M3313.44 319.288V306.178H3349.27V179.449H3313.44V166.339H3400.4V179.449H3364.57V306.178H3400.4V319.288H3313.44Z" fill="white"/>
<path d="M3236.17 321.909C3225.54 321.909 3216.29 319.87 3208.43 315.791C3200.56 311.567 3194.51 305.813 3190.29 298.53C3186.07 291.247 3183.95 282.798 3183.95 273.184H3199.9C3199.9 279.448 3201.29 285.202 3204.06 290.446C3206.82 295.69 3210.9 299.914 3216.29 303.119C3221.68 306.323 3228.31 307.926 3236.17 307.926C3247.24 307.926 3255.69 305.231 3261.52 299.841C3267.35 294.306 3270.26 287.969 3270.26 280.832C3270.26 275.005 3269.02 270.125 3266.55 266.192C3264.21 262.114 3260.14 258.472 3254.31 255.268C3248.48 252.063 3240.4 248.931 3230.06 245.872C3215.34 241.357 3204.64 235.53 3197.94 228.392C3191.24 221.109 3187.89 212.005 3187.89 201.08C3187.89 194.088 3189.71 187.825 3193.35 182.289C3196.99 176.608 3202.31 172.093 3209.3 168.742C3216.44 165.392 3225.03 163.717 3235.08 163.717C3244.7 163.717 3253 165.538 3259.99 169.179C3267.13 172.821 3272.59 177.847 3276.38 184.256C3280.31 190.519 3282.28 197.657 3282.28 205.669H3266.55C3266.55 201.299 3265.38 197.002 3263.05 192.777C3260.72 188.407 3257.15 184.838 3252.34 182.071C3247.68 179.158 3241.64 177.701 3234.21 177.701C3225.47 177.701 3218.18 179.813 3212.36 184.037C3206.53 188.116 3203.62 193.87 3203.62 201.299C3203.62 206.543 3204.78 210.985 3207.11 214.627C3209.44 218.269 3213.45 221.619 3219.13 224.678C3224.81 227.591 3232.61 230.723 3242.51 234.073C3251.98 237.278 3259.92 240.847 3266.33 244.78C3272.88 248.567 3277.76 253.301 3280.97 258.982C3284.32 264.517 3285.99 271.509 3285.99 279.958C3285.99 288.115 3283.81 295.398 3279.44 301.808C3275.21 308.071 3269.39 313.024 3261.96 316.665C3254.53 320.161 3245.93 321.909 3236.17 321.909Z" fill="white"/>
<path d="M3066.27 319.288V166.339H3160.44V180.323H3081.56V235.384H3153.89V249.368H3081.56V305.304H3160.44V319.288H3066.27Z" fill="white"/>
<path d="M2940.28 319.288V166.339H2969.34C2986.38 166.339 3000.37 169.471 3011.29 175.735C3022.22 181.852 3030.3 190.665 3035.55 202.173C3040.94 213.535 3043.63 227.081 3043.63 242.813C3043.63 258.545 3040.94 272.165 3035.55 283.672C3030.3 295.034 3022.22 303.847 3011.29 310.111C3000.37 316.229 2986.38 319.288 2969.34 319.288H2940.28ZM2955.58 305.304H2969.34C2983.76 305.304 2995.2 302.755 3003.65 297.656C3012.24 292.412 3018.43 285.129 3022.22 275.806C3026.01 266.484 3027.9 255.486 3027.9 242.813C3027.9 230.14 3026.01 219.143 3022.22 209.82C3018.43 200.352 3012.24 193.069 3003.65 187.97C2995.2 182.872 2983.76 180.323 2969.34 180.323H2955.58V305.304Z" fill="white"/>
<path d="M5752.32 320V165.98H5801.17C5817.3 165.98 5829.26 169.647 5837.03 176.981C5844.95 184.316 5848.91 193.63 5848.91 204.925C5848.91 210.939 5847.74 216.293 5845.39 220.987C5843.19 225.534 5840.26 229.422 5836.59 232.649C5833.07 235.729 5829.33 238.076 5825.37 239.69V241.01C5830.07 242.477 5834.47 244.897 5838.57 248.271C5842.68 251.498 5845.98 255.605 5848.47 260.592C5851.11 265.58 5852.44 271.374 5852.44 277.975C5852.44 285.602 5850.53 292.643 5846.71 299.097C5842.9 305.405 5837.33 310.465 5829.99 314.279C5822.66 318.093 5813.56 320 5802.71 320H5752.32ZM5767.72 233.749H5800.73C5811.14 233.749 5819.14 231.328 5824.71 226.488C5830.29 221.647 5833.07 214.973 5833.07 206.465C5833.07 198.251 5830.36 191.797 5824.93 187.103C5819.5 182.409 5811.22 180.062 5800.07 180.062H5767.72V233.749ZM5767.72 305.918H5801.61C5812.76 305.918 5821.34 303.351 5827.35 298.217C5833.51 292.936 5836.59 285.749 5836.59 276.654C5836.59 267.56 5833.37 260.446 5826.91 255.312C5820.6 250.031 5811.95 247.391 5800.95 247.391H5767.72V305.918Z" fill="white"/>
<path d="M5621.05 320L5670.56 165.98H5687.94L5737.23 320H5720.28L5708.18 280.835H5650.09L5637.99 320H5621.05ZM5678.7 187.543L5654.06 267.633H5704.22L5679.58 187.543H5678.7Z" fill="white"/>
<path d="M5510.02 320V165.98H5525.42V305.918H5604.85V320H5510.02Z" fill="white"/>
<path d="M1119.43 88.7373C1180.21 88.7373 1227.21 141.412 1227.21 207.053C1227.21 272.694 1180.21 325.369 1119.43 325.369C1082.56 325.369 1052.98 309.566 1033.53 275.936H1031.91V382.906H980.854V94.8145H1030.69V140.196H1032.31C1046.09 108.997 1080.94 88.7375 1119.43 88.7373ZM623.187 88.7373C667.352 88.7375 703.819 119.126 703.819 158.835L653.17 158.43C653.17 143.438 638.989 134.929 623.187 134.929C606.979 134.929 593.202 143.033 593.202 156.81C593.202 173.422 612.652 177.474 632.911 182.741C662.895 190.44 704.225 200.57 704.225 253.245C704.225 292.954 666.947 324.964 621.566 324.964C573.753 324.964 538.096 292.549 538.096 253.245H588.745C589.151 267.832 603.737 278.367 622.376 278.367C642.23 278.367 654.791 268.642 654.791 254.056C654.791 235.417 634.936 231.364 614.677 226.097C572.537 215.562 542.553 198.139 542.553 157.215C542.553 118.722 577.4 88.7373 623.187 88.7373ZM790.392 234.606C790.392 262.564 809.03 277.557 836.178 277.557C864.541 277.557 881.154 260.944 881.154 234.606V94.8145H932.208V231.77C932.208 286.876 891.689 324.964 836.178 324.964C780.667 324.964 740.148 286.876 740.148 231.77V94.8145H790.392V234.606ZM1374.65 88.7373C1443.12 88.7374 1496.61 140.196 1496.61 207.458C1496.61 211.105 1496.2 217.588 1494.99 223.666H1306.98C1312.65 254.461 1341.42 277.557 1375.46 277.557C1402.2 277.557 1424.48 264.995 1435.02 242.305H1490.94C1475.13 290.522 1430.56 324.964 1374.65 324.964C1306.17 324.964 1252.68 271.479 1252.68 205.838C1252.68 140.197 1306.17 88.7373 1374.65 88.7373ZM2054.39 87.1162C2088.43 87.1162 2119.63 101.703 2141.1 124.394L2108.28 158.024C2095.72 143.843 2077.08 134.929 2054.39 134.929C2016.31 134.929 1985.92 165.724 1985.92 205.838C1985.92 246.357 2016.31 277.151 2054.39 277.151C2075.87 277.151 2092.89 269.453 2105.45 256.892L2138.27 290.117C2116.79 311.998 2087.21 324.964 2054.39 324.964C1988.35 324.964 1934.86 271.884 1934.86 205.838C1934.86 140.197 1988.35 87.1163 2054.39 87.1162ZM2367.58 88.332C2407.28 88.332 2438.08 109.807 2452.26 139.386H2453.88V94.8145H2503.31V318.886H2453.88V275.125H2452.26C2432.81 310.377 2403.64 324.964 2367.58 324.964C2303.96 324.964 2256.96 272.288 2256.96 206.647C2256.96 141.007 2303.96 88.3323 2367.58 88.332ZM174.011 202.597C181.699 202.597 187.932 208.644 187.932 216.104V310.647C187.932 318.107 181.699 324.154 174.011 324.154H76.5646C68.8764 324.154 62.6437 318.107 62.6437 310.647V216.104C62.6437 208.644 68.8764 202.597 76.5646 202.597H174.011ZM1668.57 142.223H1584.69V318.886H1533.64V94.8145H1668.57V142.223ZM1808.86 79.0127H1749.7V143.033H1803.99V190.846H1749.7V318.886H1698.64V31.6045H1808.86V79.0127ZM2608.34 318.886H2558.09V31.6045H2608.34V318.886ZM1898 318.48H1846.95V94.8145H1898V318.48ZM2220.18 318.48H2169.13V94.8145H2220.18V318.48ZM1106.06 136.55C1068.78 136.55 1037.99 164.103 1037.99 207.053C1037.99 250.003 1068.78 277.557 1106.06 277.557C1143.74 277.557 1174.94 250.003 1174.94 207.053C1174.94 164.103 1143.74 136.55 1106.06 136.55ZM2378.11 136.145C2338 136.145 2310.44 166.129 2310.44 206.647C2310.44 246.761 2338 277.151 2378.11 277.151C2418.63 277.151 2446.59 246.761 2446.59 206.647C2446.59 166.128 2418.63 136.145 2378.11 136.145ZM1373.84 136.145C1338.18 136.145 1311.44 156.809 1307.79 185.173H1440.29C1435.83 158.43 1409.49 136.145 1373.84 136.145ZM271.455 60.7812C306.052 60.7812 334.1 87.9926 334.1 121.56C334.1 155.127 306.053 182.339 271.455 182.339C236.858 182.339 208.812 155.127 208.812 121.56C208.812 87.9926 236.858 60.7813 271.455 60.7812ZM73.0763 0C74.342 0 75.5879 0.292512 76.7003 0.851562C77.8127 1.41062 78.7567 2.21846 79.4464 3.20117L145.191 111.438C145.832 112.466 146.169 113.632 146.169 114.819C146.169 116.007 145.832 117.174 145.191 118.202C144.547 119.223 143.626 120.071 142.519 120.659C141.411 121.248 140.156 121.557 138.879 121.557H7.39077C6.10426 121.571 4.83655 121.27 3.71597 120.685C2.59532 120.099 1.66133 119.25 1.00894 118.223C0.356586 117.196 0.0083413 116.027 0.000146305 114.836C-0.00799684 113.645 0.323923 112.472 0.96206 111.438L66.7062 3.20117C67.3959 2.21848 68.34 1.41064 69.4523 0.851562C70.5647 0.292513 71.8107 2.95629e-05 73.0763 0ZM1872.47 0C1888.68 0 1901.65 12.9661 1901.65 29.1738C1901.65 45.3815 1888.68 58.7529 1872.47 58.7529C1856.26 58.7527 1842.89 45.3814 1842.89 29.1738C1842.89 12.9663 1856.26 0.000206656 1872.47 0ZM2194.65 0C2210.86 0 2223.83 12.9661 2223.83 29.1738C2223.83 45.3815 2210.86 58.7529 2194.65 58.7529C2178.45 58.7529 2165.07 45.3815 2165.07 29.1738C2165.07 12.9662 2178.45 5.00663e-05 2194.65 0Z" fill="white"/>
</svg>
